<svg width="64" height="64" viewBox="0 0 64 64" fill="none" xmlns="http://www.w3.org/2000/svg">
<path d="M24.8889 7.11111H10.6666C8.70296 7.11111 7.11108 8.70299 7.11108 10.6667V24.8889C7.11108 26.8526 8.70296 28.4444 10.6666 28.4444H24.8889C26.8525 28.4444 28.4444 26.8526 28.4444 24.8889V10.6667C28.4444 8.70299 26.8525 7.11111 24.8889 7.11111Z" fill="#65E4A3"/>
<path d="M53.3333 7.11111H39.1111C37.1474 7.11111 35.5555 8.70299 35.5555 10.6667V24.8889C35.5555 26.8526 37.1474 28.4444 39.1111 28.4444H53.3333C55.297 28.4444 56.8889 26.8526 56.8889 24.8889V10.6667C56.8889 8.70299 55.297 7.11111 53.3333 7.11111Z" fill="#65E4A3"/>
<path d="M24.8889 35.5555H10.6666C8.70296 35.5555 7.11108 37.1474 7.11108 39.1111V53.3333C7.11108 55.297 8.70296 56.8889 10.6666 56.8889H24.8889C26.8525 56.8889 28.4444 55.297 28.4444 53.3333V39.1111C28.4444 37.1474 26.8525 35.5555 24.8889 35.5555Z" fill="#65E4A3"/>
<path d="M53.3333 35.5555H39.1111C37.1474 35.5555 35.5555 37.1474 35.5555 39.1111V53.3333C35.5555 55.297 37.1474 56.8889 39.1111 56.8889H53.3333C55.297 56.8889 56.8889 55.297 56.8889 53.3333V39.1111C56.8889 37.1474 55.297 35.5555 53.3333 35.5555Z" fill="#65E4A3"/>
</svg>
